<svg xmlns="http://www.w3.org/2000/svg" viewBox="0 0 7 7" role="img" aria-label="BLACKLINE Adjusting">
  <!-- Block “B” (openings on the right). Rows 0,3,6 end before col 5 so it isn’t read as “E”. -->
  <rect width="7" height="7" rx="1.5" fill="#0F1C2E"/>
  <g fill="#C6A85B">
    <!-- row 0: 1111100 — top bar + stem, gap before right edge -->
    <rect x="0" y="0" width="1" height="1"/>
    <rect x="1" y="0" width="1" height="1"/>
    <rect x="2" y="0" width="1" height="1"/>
    <rect x="3" y="0" width="1" height="1"/>
    <rect x="4" y="0" width="1" height="1"/>
    <!-- row 1: 1000010 -->
    <rect x="0" y="1" width="1" height="1"/>
    <rect x="5" y="1" width="1" height="1"/>
    <!-- row 2: 1000010 -->
    <rect x="0" y="2" width="1" height="1"/>
    <rect x="5" y="2" width="1" height="1"/>
    <!-- row 3: 1111100 — middle bar -->
    <rect x="0" y="3" width="1" height="1"/>
    <rect x="1" y="3" width="1" height="1"/>
    <rect x="2" y="3" width="1" height="1"/>
    <rect x="3" y="3" width="1" height="1"/>
    <rect x="4" y="3" width="1" height="1"/>
    <!-- row 4: 1000010 -->
    <rect x="0" y="4" width="1" height="1"/>
    <rect x="5" y="4" width="1" height="1"/>
    <!-- row 5: 1000010 -->
    <rect x="0" y="5" width="1" height="1"/>
    <rect x="5" y="5" width="1" height="1"/>
    <!-- row 6: 1111100 — bottom bar -->
    <rect x="0" y="6" width="1" height="1"/>
    <rect x="1" y="6" width="1" height="1"/>
    <rect x="2" y="6" width="1" height="1"/>
    <rect x="3" y="6" width="1" height="1"/>
    <rect x="4" y="6" width="1" height="1"/>
  </g>
</svg>
